# xmcd
#
# Track frame offsets:
#	187
#	14655
#	29210
#	45177
#	60897
#	74967
#	91280
#	106550
#	125652
#	139337
#	156650
#	171742
#	183972
#	197210
#	213225
#	229952
#	246142
#	263175
#	283640
#	296297
#
# Disc length: 4131 seconds
#
# Revision: 1
# Processed by: cddbd v1.4PL0 Copyright (c) Steve Scherf et al.
# Submitted via: audiograbber 1.82.01
#
DISCID=37102114
DTITLE=Various Artist - Country Music USA 
DYEAR=1900
DGENRE=Oldies
TTITLE0=Alabama - Song Of The South
TTITLE1=Don Williams - Back In My Younger Days
TTITLE2=Dolly Parton - Tennessee Homesick Blues
TTITLE3=Steve Wariner - All Roads Lead To You
TTITLE4=Earl Thomas Conley - Right From The Start
TTITLE5=Michael Johnson - Give Me Wings
TTITLE6=Paul Overstreet - See'in My Father In Me
TTITLE7=The Judds - Grandpa
TTITLE8=Aaron Tippin - You've Got To Stand For Something
TTITLE9=Jo-El Sonnier - No More One More Time
TTITLE10=Eddie Rabbitt - The Wanderer
TTITLE11=Eddy Raven - Your Never To Old For Young Love
TTITLE12=Restless Heart - Why Does It Have To Be
TTITLE13=Lorrie Morgan - Five Munites
TTITLE14=Ronnie Milsap - Smoky Mountain Rain
TTITLE15=Keith Whitley - Im No Stranger To The Rain
TTITLE16=K T Oslin - Come Next Monday
TTITLE17=Foster And Lloyd - Crazy Over You
TTITLE18=Waylon and Willy - Just To Satisfy You
TTITLE19=Ed Bruce - Nights
EXTD=
EXTT0=
EXTT1=
EXTT2=
EXTT3=
EXTT4=
EXTT5=
EXTT6=
EXTT7=
EXTT8=
EXTT9=
EXTT10=
EXTT11=
EXTT12=
EXTT13=
EXTT14=
EXTT15=
EXTT16=
EXTT17=
EXTT18=
EXTT19=
PLAYORDER=
